<svg xmlns="http://www.w3.org/2000/svg" width="1320" height="620" viewBox="0 0 1320 620"><defs><marker id="ar" markerWidth="11" markerHeight="11" refX="9" refY="3.2" orient="auto"><path d="M0,0 L9,3.2 L0,6.4" fill="none" stroke="#12B76A" stroke-width="1.3"/></marker></defs><rect width="1320" height="620" fill="#fff"/><rect x="400" y="60" width="760" height="540" rx="14" fill="none" stroke="#8FA3C0" stroke-width="2"/><text x="780.0" y="46" text-anchor="middle" font-family="Arial" font-size="17" font-weight="700" fill="#1F3864">Módulo FAC — Facturación electrónica</text><line x1="150" y1="274" x2="521.929642046274" y2="163.2476177017762" stroke="#5B6678" stroke-width="1.4"/><line x1="150" y1="274" x2="511.82374810546224" y2="294.0157818100894" stroke="#5B6678" stroke-width="1.4"/><line x1="150" y1="274" x2="535.3865182210194" y2="433.2930941980213" stroke="#5B6678" stroke-width="1.4"/><line x1="150" y1="274" x2="790.7271455745112" y2="296.21187437991637" stroke="#5B6678" stroke-width="1.4"/><line x1="1160" y1="300" x2="730.0" y2="300.0" stroke="#5B6678" stroke-width="1.4"/><line x1="1160" y1="300" x2="1010.0" y2="300.0" stroke="#5B6678" stroke-width="1.4"/><line x1="790.0" y1="300.0" x2="730.0" y2="300.0" stroke="#12B76A" stroke-width="1.5" stroke-dasharray="6 4" marker-end="url(#ar)"/><rect x="720.0" y="289.0" width="80" height="18" fill="#fff"/><text x="760.0" y="304.0" text-anchor="middle" font-family="Arial" font-size="11.5" fill="#0E7A4E">«extend»</text><ellipse cx="600" cy="140" rx="110" ry="33" fill="#EEF3FB" stroke="#2E5496" stroke-width="1.6"/><text x="600" y="137" text-anchor="middle" font-family="Arial" font-size="13" font-weight="400" fill="#1A2233">Configurar</text><text x="600" y="153" text-anchor="middle" font-family="Arial" font-size="13" font-weight="400" fill="#1A2233">datos fiscales</text><ellipse cx="620" cy="300" rx="110" ry="33" fill="#EEF3FB" stroke="#2E5496" stroke-width="1.6"/><text x="620" y="297" text-anchor="middle" font-family="Arial" font-size="13" font-weight="400" fill="#1A2233">Emitir factura</text><text x="620" y="313" text-anchor="middle" font-family="Arial" font-size="13" font-weight="400" fill="#1A2233">electrónica</text><ellipse cx="600" cy="460" rx="110" ry="33" fill="#EEF3FB" stroke="#2E5496" stroke-width="1.6"/><text x="600" y="457" text-anchor="middle" font-family="Arial" font-size="13" font-weight="400" fill="#1A2233">Consultar y</text><text x="600" y="473" text-anchor="middle" font-family="Arial" font-size="13" font-weight="400" fill="#1A2233">reenviar facturas</text><ellipse cx="900" cy="300" rx="110" ry="33" fill="#EEF3FB" stroke="#2E5496" stroke-width="1.6"/><text x="900" y="305" text-anchor="middle" font-family="Arial" font-size="13" font-weight="400" fill="#1A2233">Emitir nota crédito</text><g stroke="#1F3864" stroke-width="2.4" fill="none" stroke-linecap="round"><circle cx="150" cy="274" r="11" fill="#fff"/><line x1="150" y1="285" x2="150" y2="314"/><line x1="134" y1="296" x2="166" y2="296"/><line x1="150" y1="314" x2="137" y2="334"/><line x1="150" y1="314" x2="163" y2="334"/></g><text x="150" y="352" text-anchor="middle" font-family="Arial" font-size="15" font-weight="700" fill="#1F3864">Administrador</text><rect x="1065.0" y="270.0" width="190" height="60" rx="6" fill="#EAF0F8" stroke="#1F3864" stroke-width="1.8"/><text x="1160" y="294" text-anchor="middle" font-family="Arial" font-size="12" fill="#5B6678">«sistema»</text><text x="1160" y="315" text-anchor="middle" font-family="Arial" font-size="14" font-weight="700" fill="#1F3864">Servicio DIAN</text></svg>