<svg xmlns="http://www.w3.org/2000/svg" width="1400" height="720" viewBox="0 0 1400 720"><defs><marker id="ar" markerWidth="11" markerHeight="11" refX="9" refY="3.2" orient="auto"><path d="M0,0 L9,3.2 L0,6.4" fill="none" stroke="#12B76A" stroke-width="1.3"/></marker></defs><rect width="1400" height="720" fill="#fff"/><rect x="400" y="60" width="900" height="620" rx="14" fill="none" stroke="#8FA3C0" stroke-width="2"/><text x="850.0" y="46" text-anchor="middle" font-family="Arial" font-size="17" font-weight="700" fill="#1F3864">Módulo SUS — Suscripciones y planes</text><line x1="150" y1="214" x2="531.437383114675" y2="195.31735266377103" stroke="#5B6678" stroke-width="1.4"/><line x1="150" y1="214" x2="574.0" y2="383.6" stroke="#5B6678" stroke-width="1.4"/><line x1="150" y1="474" x2="589.4354078550947" y2="219.30682483500635" stroke="#5B6678" stroke-width="1.4"/><line x1="1300" y1="430" x2="736.1573003733691" y2="523.9737832711052" stroke="#5B6678" stroke-width="1.4"/><line x1="723.3915051575042" y1="168.47961157225697" x2="866.6084948424958" y2="131.52038842774303" stroke="#12B76A" stroke-width="1.5" stroke-dasharray="6 4" marker-end="url(#ar)"/><rect x="755.0" y="139.0" width="80" height="18" fill="#fff"/><text x="795.0" y="154.0" text-anchor="middle" font-family="Arial" font-size="11.5" fill="#0E7A4E">«include»</text><line x1="746.228754107665" y1="198.56683500868266" x2="843.771245892335" y2="206.43316499131734" stroke="#12B76A" stroke-width="1.5" stroke-dasharray="6 4" marker-end="url(#ar)"/><rect x="755.0" y="191.5" width="80" height="18" fill="#fff"/><text x="795.0" y="206.5" text-anchor="middle" font-family="Arial" font-size="11.5" fill="#0E7A4E">«include»</text><line x1="704.0012830608403" y1="216.83924773519107" x2="885.9987169391597" y2="293.16075226480893" stroke="#12B76A" stroke-width="1.5" stroke-dasharray="6 4" marker-end="url(#ar)"/><rect x="755.0" y="244.0" width="80" height="18" fill="#fff"/><text x="795.0" y="259.0" text-anchor="middle" font-family="Arial" font-size="11.5" fill="#0E7A4E">«include»</text><line x1="680.4774902394116" y1="220.68454905245719" x2="909.5225097605884" y2="394.31545094754284" stroke="#12B76A" stroke-width="1.5" stroke-dasharray="6 4" marker-end="url(#ar)"/><rect x="755.0" y="296.5" width="80" height="18" fill="#fff"/><text x="795.0" y="311.5" text-anchor="middle" font-family="Arial" font-size="11.5" fill="#0E7A4E">«include»</text><line x1="669.0221232874127" y1="221.83071586361388" x2="920.9778767125873" y2="498.1692841363861" stroke="#12B76A" stroke-width="1.5" stroke-dasharray="6 4" marker-end="url(#ar)"/><rect x="755.0" y="349.0" width="80" height="18" fill="#fff"/><text x="795.0" y="364.0" text-anchor="middle" font-family="Arial" font-size="11.5" fill="#0E7A4E">«include»</text><ellipse cx="640" cy="190" rx="110" ry="33" fill="#DCEAF7" stroke="#2E5496" stroke-width="2.2"/><text x="640" y="187" text-anchor="middle" font-family="Arial" font-size="13" font-weight="700" fill="#1A2233">Administrar</text><text x="640" y="203" text-anchor="middle" font-family="Arial" font-size="13" font-weight="700" fill="#1A2233">suscripción</text><ellipse cx="950" cy="110" rx="110" ry="33" fill="#EEF3FB" stroke="#2E5496" stroke-width="1.6"/><text x="950" y="107" text-anchor="middle" font-family="Arial" font-size="13" font-weight="400" fill="#1A2233">Registrar</text><text x="950" y="123" text-anchor="middle" font-family="Arial" font-size="13" font-weight="400" fill="#1A2233">licorera (tenant)</text><ellipse cx="950" cy="215" rx="110" ry="33" fill="#EEF3FB" stroke="#2E5496" stroke-width="1.6"/><text x="950" y="220" text-anchor="middle" font-family="Arial" font-size="13" font-weight="400" fill="#1A2233">Cambiar plan</text><ellipse cx="950" cy="320" rx="110" ry="33" fill="#EEF3FB" stroke="#2E5496" stroke-width="1.6"/><text x="950" y="317" text-anchor="middle" font-family="Arial" font-size="13" font-weight="400" fill="#1A2233">Suspender</text><text x="950" y="333" text-anchor="middle" font-family="Arial" font-size="13" font-weight="400" fill="#1A2233">suscripción</text><ellipse cx="950" cy="425" rx="110" ry="33" fill="#EEF3FB" stroke="#2E5496" stroke-width="1.6"/><text x="950" y="422" text-anchor="middle" font-family="Arial" font-size="13" font-weight="400" fill="#1A2233">Reactivar</text><text x="950" y="438" text-anchor="middle" font-family="Arial" font-size="13" font-weight="400" fill="#1A2233">suscripción</text><ellipse cx="950" cy="530" rx="110" ry="33" fill="#EEF3FB" stroke="#2E5496" stroke-width="1.6"/><text x="950" y="535" text-anchor="middle" font-family="Arial" font-size="13" font-weight="400" fill="#1A2233">Consultar estado</text><ellipse cx="640" cy="410" rx="110" ry="33" fill="#EEF3FB" stroke="#2E5496" stroke-width="1.6"/><text x="640" y="415" text-anchor="middle" font-family="Arial" font-size="13" font-weight="400" fill="#1A2233">Administrar licoreras</text><ellipse cx="640" cy="540" rx="110" ry="33" fill="#EEF3FB" stroke="#2E5496" stroke-width="1.6"/><text x="640" y="537" text-anchor="middle" font-family="Arial" font-size="13" font-weight="400" fill="#1A2233">Restringir</text><text x="640" y="553" text-anchor="middle" font-family="Arial" font-size="13" font-weight="400" fill="#1A2233">funciones por plan</text><g stroke="#1F3864" stroke-width="2.4" fill="none" stroke-linecap="round"><circle cx="150" cy="214" r="11" fill="#fff"/><line x1="150" y1="225" x2="150" y2="254"/><line x1="134" y1="236" x2="166" y2="236"/><line x1="150" y1="254" x2="137" y2="274"/><line x1="150" y1="254" x2="163" y2="274"/></g><text x="150" y="292" text-anchor="middle" font-family="Arial" font-size="15" font-weight="700" fill="#1F3864">Superadministrador</text><g stroke="#1F3864" stroke-width="2.4" fill="none" stroke-linecap="round"><circle cx="150" cy="474" r="11" fill="#fff"/><line x1="150" y1="485" x2="150" y2="514"/><line x1="134" y1="496" x2="166" y2="496"/><line x1="150" y1="514" x2="137" y2="534"/><line x1="150" y1="514" x2="163" y2="534"/></g><text x="150" y="552" text-anchor="middle" font-family="Arial" font-size="15" font-weight="700" fill="#1F3864">Administrador</text><rect x="1205.0" y="400.0" width="190" height="60" rx="6" fill="#EAF0F8" stroke="#1F3864" stroke-width="1.8"/><text x="1300" y="424" text-anchor="middle" font-family="Arial" font-size="12" fill="#5B6678">«sistema»</text><text x="1300" y="445" text-anchor="middle" font-family="Arial" font-size="14" font-weight="700" fill="#1F3864">Servicio del sistema</text></svg>